<svg width="4000" height="4000" viewBox="0 0 4000 4000" fill="none" xmlns="http://www.w3.org/2000/svg">
<rect width="4000" height="4000" fill="#FF9D12"/>
<g clip-path="url(#clip0_2201_1684)">
<rect x="811" y="811" width="2378" height="2378" rx="1189" fill="#2A2B2D" fill-opacity="0.1"/>
<path d="M811 1152.88C811 1083.2 859.407 1022.87 927.432 1007.78L1422.85 897.861C1515.65 877.27 1603.67 947.895 1603.67 1042.96V1538.47C1603.67 1632.26 1689.47 1702.61 1781.44 1684.21L2218.56 1596.79C2310.53 1578.39 2396.33 1648.74 2396.33 1742.53V2171.1C2396.33 2261 2475.53 2330.32 2564.64 2318.41L3020.69 2257.49C3109.8 2245.58 3189 2314.9 3189 2404.8V2901.11C3189 2974.05 3136.07 3036.21 3064.06 3047.84L983.315 3383.79C892.949 3398.38 811 3328.6 811 3237.07V1152.88Z" fill="white"/>
</g>
<defs>
<clipPath id="clip0_2201_1684">
<rect x="811" y="811" width="2378" height="2378" rx="1189" fill="white"/>
</clipPath>
</defs>
</svg>
