<svg width="2378" height="2378" viewBox="0 0 2378 2378" fill="none" xmlns="http://www.w3.org/2000/svg">
<g clip-path="url(#clip0_2346_2220)">
<rect width="2378" height="2378" rx="1189" fill="#FF9D12" fill-opacity="0.04"/>
<path d="M0 341.878C0 272.199 48.4072 211.875 116.432 196.782L611.848 86.8612C704.654 66.27 792.667 136.895 792.667 231.958V727.474C792.667 821.263 878.471 891.606 970.439 873.213L1407.56 785.788C1499.53 767.395 1585.33 837.738 1585.33 931.527V1360.1C1585.33 1450 1664.53 1519.32 1753.64 1507.41L2209.69 1446.49C2298.8 1434.58 2378 1503.9 2378 1593.8V2090.11C2378 2163.05 2325.07 2225.21 2253.06 2236.84L172.315 2572.79C81.949 2587.38 0 2517.6 0 2426.07V341.878Z" fill="#FF9D12"/>
</g>
<defs>
<clipPath id="clip0_2346_2220">
<rect width="2378" height="2378" rx="1189" fill="white"/>
</clipPath>
</defs>
</svg>
